<svg id="visual" viewBox="0 0 900 450" width="900" height="450" xmlns="http://www.w3.org/2000/svg" xmlns:xlink="http://www.w3.org/1999/xlink" version="1.1"><path d="M0 404L21.5 397.3C43 390.7 86 377.3 128.8 368.2C171.7 359 214.3 354 257.2 355.5C300 357 343 365 385.8 371.7C428.7 378.3 471.3 383.7 514.2 383.5C557 383.3 600 377.7 642.8 381.7C685.7 385.7 728.3 399.3 771.2 400C814 400.7 857 388.3 878.5 382.2L900 376L900 451L878.5 451C857 451 814 451 771.2 451C728.3 451 685.7 451 642.8 451C600 451 557 451 514.2 451C471.3 451 428.7 451 385.8 451C343 451 300 451 257.2 451C214.3 451 171.7 451 128.8 451C86 451 43 451 21.5 451L0 451Z" fill="#1E1812" stroke-linecap="round" stroke-linejoin="miter"></path></svg>